<?xml version="1.0" encoding="iso-8859-1"?>
<!-- Uploaded to: SVG Repo, www.svgrepo.com, Generator: SVG Repo Mixer Tools -->
<!DOCTYPE svg PUBLIC "-//W3C//DTD SVG 1.1//EN" "http://www.w3.org/Graphics/SVG/1.1/DTD/svg11.dtd">
<svg fill="#000000" height="800px" width="800px" version="1.1" id="Capa_1" xmlns="http://www.w3.org/2000/svg" xmlns:xlink="http://www.w3.org/1999/xlink" 
	 viewBox="0 0 410 410" xml:space="preserve">
<g>
	<path d="M358.737,249.431v-88.857c16.732-4.399,29.11-19.653,29.11-37.748c0-21.519-17.507-39.026-39.026-39.026
		c-10.548,0-20.125,4.213-27.155,11.037l-79-45.61c0.881-3.253,1.36-6.671,1.36-10.199C244.026,17.507,226.52,0,205,0
		s-39.026,17.507-39.026,39.026c0,3.528,0.479,6.946,1.36,10.199l-78.999,45.61c-7.03-6.824-16.608-11.037-27.156-11.037
		c-21.52,0-39.026,17.507-39.026,39.026c0,18.095,12.379,33.349,29.11,37.748v88.857c-16.731,4.399-29.11,19.651-29.11,37.744
		c0,21.519,17.507,39.026,39.026,39.026c10.548,0,20.125-4.213,27.155-11.037l79.001,45.61c-0.882,3.253-1.361,6.67-1.361,10.199
		C165.974,392.493,183.48,410,205,410s39.026-17.507,39.026-39.026c0-3.528-0.479-6.946-1.36-10.199l79-45.611
		c7.03,6.824,16.607,11.037,27.155,11.037c21.52,0,39.026-17.507,39.026-39.026C387.848,269.082,375.469,253.83,358.737,249.431z
		 M321.051,259.79l-37.803-21.6C287.592,227.988,290,216.77,290,205s-2.408-22.988-6.752-33.191l37.801-21.599
		c4.809,4.876,10.884,8.493,17.689,10.315v88.953C331.934,251.3,325.858,254.917,321.051,259.79z M205,270
		c-35.841,0-65-29.159-65-65s29.159-65,65-65s65,29.159,65,65S240.841,270,205,270z M71.263,249.479v-88.953
		c6.805-1.822,12.881-5.439,17.688-10.315l37.801,21.598C122.408,182.012,120,193.23,120,205s2.408,22.988,6.752,33.191
		l-37.803,21.6C84.142,254.917,78.066,251.3,71.263,249.479z M348.821,103.799c10.491,0,19.026,8.535,19.026,19.026
		c0,10.492-8.535,19.028-19.026,19.028c-10.49,0-19.025-8.536-19.025-19.028C329.796,112.334,338.331,103.799,348.821,103.799z
		 M311.344,111.97c-1.001,3.449-1.548,7.088-1.548,10.855c0,3.467,0.46,6.828,1.313,10.031l-37.814,21.605
		c-13.624-18.363-34.468-31.046-58.295-33.853V76.748c6.78-1.799,12.843-5.378,17.65-10.21L311.344,111.97z M205,20
		c10.491,0,19.026,8.535,19.026,19.026c0,10.491-8.535,19.025-19.026,19.025s-19.026-8.535-19.026-19.025
		C185.974,28.535,194.509,20,205,20z M195,76.748v43.861c-23.827,2.807-44.671,15.49-58.295,33.853l-37.813-21.605
		c0.853-3.202,1.313-6.563,1.313-10.03c0-3.767-0.547-7.406-1.548-10.854l78.693-45.433C182.157,71.369,188.22,74.949,195,76.748z
		 M42.152,122.825c0-10.491,8.535-19.026,19.026-19.026c10.49,0,19.025,8.535,19.025,19.026c0,10.492-8.535,19.028-19.025,19.028
		C50.688,141.854,42.152,133.317,42.152,122.825z M61.179,306.201c-10.491,0-19.026-8.535-19.026-19.026
		c0-10.49,8.535-19.024,19.026-19.024c10.49,0,19.025,8.534,19.025,19.024C80.204,297.666,71.669,306.201,61.179,306.201z
		 M98.656,298.03c1.001-3.449,1.548-7.088,1.548-10.855c0-3.467-0.46-6.828-1.313-10.03l37.814-21.606
		c13.624,18.363,34.468,31.046,58.295,33.853v43.861c-6.78,1.799-12.843,5.378-17.65,10.21L98.656,298.03z M205,390
		c-10.491,0-19.026-8.535-19.026-19.026c0-10.491,8.535-19.025,19.026-19.025s19.026,8.535,19.026,19.025
		C224.026,381.465,215.491,390,205,390z M215,333.252v-43.861c23.828-2.807,44.671-15.491,58.295-33.854l37.815,21.606
		c-0.854,3.203-1.314,6.563-1.314,10.031c0,3.767,0.547,7.406,1.548,10.855l-78.693,45.433
		C227.843,338.631,221.78,335.051,215,333.252z M348.821,306.201c-10.49,0-19.025-8.535-19.025-19.026
		c0-10.49,8.535-19.024,19.025-19.024c10.491,0,19.026,8.534,19.026,19.024C367.848,297.666,359.313,306.201,348.821,306.201z"/>
	<path d="M249.379,172.978l-12.355-12.355c-2.867-2.87-6.68-4.451-10.736-4.451c-4.056,0-7.869,1.58-10.736,4.449l-20.269,20.268
		c-2.689,2.689-4.227,6.213-4.409,9.987c-3.772,0.183-7.298,1.721-9.985,4.41l-20.268,20.267c-2.87,2.87-4.449,6.683-4.449,10.739
		c0.001,4.056,1.581,7.868,4.449,10.732l12.355,12.354c2.867,2.872,6.68,4.453,10.736,4.453c4.054,0,7.866-1.579,10.735-4.448
		l20.269-20.269c2.769-2.77,4.224-6.353,4.401-9.987c3.774-0.181,7.302-1.718,9.995-4.41l20.267-20.267
		c2.869-2.868,4.449-6.681,4.449-10.736C253.829,179.656,252.248,175.843,249.379,172.978z M207.644,222.042l-20.267,20.267
		c-0.98,0.98-2.281,1.52-3.665,1.52c-1.383,0-2.683-0.539-3.663-1.521l-12.359-12.359c-0.979-0.977-1.518-2.277-1.518-3.66
		c0-1.384,0.54-2.687,1.52-3.666l20.269-20.267c0.977-0.978,2.277-1.517,3.661-1.517c1.385,0,2.686,0.539,3.663,1.517l2.646,2.645
		l-12.996,12.996c-1.953,1.953-1.953,5.119,0,7.071c0.976,0.976,2.256,1.464,3.535,1.464c1.279,0,2.56-0.488,3.535-1.464
		L205,212.072l2.644,2.644C209.663,216.735,209.662,220.023,207.644,222.042z M242.309,187.376l-20.266,20.267
		c-0.98,0.979-2.282,1.518-3.666,1.518c-1.384,0-2.685-0.538-3.662-1.517l-2.643-2.643l12.995-12.995
		c1.953-1.953,1.953-5.119,0-7.071c-1.951-1.952-5.119-1.952-7.07,0l-12.995,12.995l-2.646-2.646
		c-0.978-0.978-1.517-2.279-1.518-3.663c0-1.384,0.538-2.685,1.516-3.662l20.27-20.268c0.979-0.98,2.281-1.52,3.665-1.52
		c1.383,0,2.683,0.539,3.663,1.52l12.359,12.359c0.979,0.978,1.518,2.278,1.518,3.661
		C243.828,185.095,243.288,186.396,242.309,187.376z"/>
</g>
</svg>